<?xml version="1.0" encoding="UTF-8"?>
<svg width="171px" height="171px" viewBox="0 0 171 171" version="1.1" xmlns="http://www.w3.org/2000/svg" xmlns:xlink="http://www.w3.org/1999/xlink">
    <!-- Generator: Sketch 60.1 (88133) - https://sketch.com -->
    <title>编组 2备份 3</title>
    <desc>Created with Sketch.</desc>
    <defs>
        <polygon id="path-1" points="9.35483871e-05 0 145 0 145 145 9.35483871e-05 145"></polygon>
        <polygon id="path-3" points="0 145 145 145 145 0 0 0"></polygon>
    </defs>
    <g id="寶藍" stroke="none" stroke-width="1" fill="none" fill-rule="evenodd">
        <g id="编组-2备份-3">
            <circle id="椭圆形备份" fill="#F9F9F9" cx="85.5" cy="85.5" r="85.5"></circle>
            <g id="编组" transform="translate(13.000000, 13.000000)">
                <g>
                    <mask id="mask-2" fill="white">
                        <use xlink:href="#path-1"></use>
                    </mask>
                    <g id="Clip-2"></g>
                    <path d="M145.000094,72.5 C145.000094,112.540581 112.54161,145 72.5000935,145 C32.4585774,145 9.35483871e-05,112.540581 9.35483871e-05,72.5 C9.35483871e-05,32.4584839 32.4585774,0 72.5000935,0 C112.54161,0 145.000094,32.4584839 145.000094,72.5" id="Fill-1" fill="#FECE66" mask="url(#mask-2)"></path>
                </g>
                <path d="M111.107045,41.2362226 C110.620594,40.8713839 110.040594,40.6936419 109.451239,40.6936419 L35.5480129,40.6936419 C34.8286258,40.6936419 34.1073677,40.9649323 33.5647871,41.5168677 C33.0137871,42.0594484 32.7415613,42.779771 32.7415613,43.5000935 L32.7415613,101.500094 C32.7415613,101.97719 32.8631742,102.453352 33.1064,102.88461 L34.1737871,103.951061 L75.154529,144.932739 C113.111787,143.564126 143.612303,113.031803 144.935077,75.0642548 L111.107045,41.2362226 Z" id="Fill-3" fill="#F5B540"></path>
                <path d="M112.258158,101.5 C112.258158,102.218452 111.984061,102.935968 111.435868,103.484161 C110.887674,104.032355 110.170158,104.306452 109.451706,104.306452 L35.5484806,104.306452 C34.830029,104.306452 34.1125129,104.032355 33.5643194,103.484161 C33.0161258,102.935968 32.742029,102.218452 32.742029,101.5 L32.742029,55.0064516 L112.258158,55.0064516 L112.258158,101.5 Z" id="Fill-5" fill="#FFFFFF"></path>
                <path d="M112.258158,55.0062645 L32.742029,55.0062645 L32.742029,43.4998129 C32.742029,42.7822968 33.0161258,42.0638452 33.5643194,41.5156516 C34.1125129,40.9674581 34.830029,40.6933613 35.5484806,40.6933613 L109.451706,40.6933613 C110.170158,40.6933613 110.887674,40.9674581 111.435868,41.5156516 C111.984061,42.0638452 112.258158,42.7822968 112.258158,43.4998129 L112.258158,55.0062645 Z" id="Fill-7" fill="#E6E5E5"></path>
                <mask id="mask-4" fill="white">
                    <use xlink:href="#path-3"></use>
                </mask>
                <g id="Clip-10"></g>
                <polygon id="Fill-9" fill="#8FDEF6" mask="url(#mask-4)" points="39.7580645 96.9629032 69.9377097 96.9629032 69.9377097 93.8159355 39.7580645 93.8159355"></polygon>
                <polygon id="Fill-11" fill="#D9D8D7" mask="url(#mask-4)" points="39.7580645 90.6699032 73.0790645 90.6699032 73.0790645 87.5229355 39.7580645 87.5229355"></polygon>
                <polygon id="Fill-12" fill="#8FDEF6" mask="url(#mask-4)" points="50.2036774 84.3759677 69.9358387 84.3759677 69.9358387 81.2299355 50.2036774 81.2299355"></polygon>
                <polygon id="Fill-13" fill="#D9D8D7" mask="url(#mask-4)" points="39.7580645 71.7899677 59.4911613 71.7899677 59.4911613 68.6439355 39.7580645 68.6439355"></polygon>
                <polygon id="Fill-14" fill="#8FDEF6" mask="url(#mask-4)" points="39.7580645 65.4969677 49.6246129 65.4969677 49.6246129 62.3509355 39.7580645 62.3509355"></polygon>
                <polygon id="Fill-15" fill="#D9D8D7" mask="url(#mask-4)" points="73.0790645 96.9629032 82.3646774 96.9629032 82.3646774 93.8159355 73.0790645 93.8159355"></polygon>
                <polygon id="Fill-16" fill="#8FDEF6" mask="url(#mask-4)" points="76.2222903 90.6699032 92.2321613 90.6699032 92.2321613 87.5229355 76.2222903 87.5229355"></polygon>
                <polygon id="Fill-17" fill="#D9D8D7" mask="url(#mask-4)" points="73.0790645 84.3759677 82.3656129 84.3759677 82.3656129 81.2299355 73.0790645 81.2299355"></polygon>
                <polygon id="Fill-18" fill="#D9D8D7" mask="url(#mask-4)" points="39.7580645 84.3759677 47.0613871 84.3759677 47.0613871 81.2299355 39.7580645 81.2299355"></polygon>
                <polygon id="Fill-19" fill="#8FDEF6" mask="url(#mask-4)" points="62.6325161 71.7899677 92.2321613 71.7899677 92.2321613 68.6439355 62.6325161 68.6439355"></polygon>
                <polygon id="Fill-20" fill="#D9D8D7" mask="url(#mask-4)" points="52.7669032 65.4969677 82.3646774 65.4969677 82.3646774 62.3509355 52.7669032 62.3509355"></polygon>
                <polygon id="Fill-21" fill="#8FDEF6" mask="url(#mask-4)" points="85.5079032 96.9629032 105.241935 96.9629032 105.241935 93.8159355 85.5079032 93.8159355"></polygon>
                <polygon id="Fill-22" fill="#D9D8D7" mask="url(#mask-4)" points="95.3753871 90.6699032 105.241935 90.6699032 105.241935 87.5229355 95.3753871 87.5229355"></polygon>
                <polygon id="Fill-23" fill="#D9D8D7" mask="url(#mask-4)" points="85.5088387 84.3759677 95.3753871 84.3759677 95.3753871 81.2299355 85.5088387 81.2299355"></polygon>
                <polygon id="Fill-24" fill="#D9D8D7" mask="url(#mask-4)" points="95.3753871 71.7899677 105.241935 71.7899677 105.241935 68.6439355 95.3753871 68.6439355"></polygon>
                <path d="M42.0968677,47.8503742 C42.0968677,49.1413419 41.0500613,50.1890839 39.7581581,50.1890839 C38.4662548,50.1890839 37.4194484,49.1413419 37.4194484,47.8503742 C37.4194484,46.558471 38.4662548,45.5116645 39.7581581,45.5116645 C41.0500613,45.5116645 42.0968677,46.558471 42.0968677,47.8503742" id="Fill-25" fill="#EA6552" mask="url(#mask-4)"></path>
                <path d="M49.1129968,47.8503742 C49.1129968,49.1413419 48.0661903,50.1890839 46.7742871,50.1890839 C45.4823839,50.1890839 44.4355774,49.1413419 44.4355774,47.8503742 C44.4355774,46.558471 45.4823839,45.5116645 46.7742871,45.5116645 C48.0661903,45.5116645 49.1129968,46.558471 49.1129968,47.8503742" id="Fill-26" fill="#F5B540" mask="url(#mask-4)"></path>
                <path d="M56.1291258,47.8503742 C56.1291258,49.1413419 55.0823194,50.1890839 53.7904161,50.1890839 C52.4985129,50.1890839 51.4517065,49.1413419 51.4517065,47.8503742 C51.4517065,46.558471 52.4985129,45.5116645 53.7904161,45.5116645 C55.0823194,45.5116645 56.1291258,46.558471 56.1291258,47.8503742" id="Fill-27" fill="#70C9E9" mask="url(#mask-4)"></path>
            </g>
        </g>
    </g>
</svg>