<?xml version="1.0" encoding="utf-8"?>
<!-- Generator: Adobe Illustrator 24.1.0, SVG Export Plug-In . SVG Version: 6.00 Build 0)  -->
<svg version="1.1" id="圖層_1" xmlns="http://www.w3.org/2000/svg" xmlns:xlink="http://www.w3.org/1999/xlink" x="0px" y="0px"
	 viewBox="0 0 1278.2 59" style="enable-background:new 0 0 1278.2 59;" xml:space="preserve">
<style type="text/css">
	.st0{clip-path:url(#SVGID_2_);}
	.st1{clip-path:url(#SVGID_4_);fill:#93D2D8;}
	.st2{opacity:0.2;enable-background:new    ;}
	.st3{clip-path:url(#SVGID_6_);}
	.st4{clip-path:url(#SVGID_8_);}
	.st5{clip-path:url(#SVGID_10_);enable-background:new    ;}
	.st6{clip-path:url(#SVGID_12_);}
	.st7{clip-path:url(#SVGID_14_);}
	.st8{clip-path:url(#SVGID_16_);fill:#28E0FE;}
	.st9{clip-path:url(#SVGID_18_);}
	.st10{clip-path:url(#SVGID_20_);enable-background:new    ;}
	.st11{clip-path:url(#SVGID_22_);}
	.st12{clip-path:url(#SVGID_24_);}
	.st13{clip-path:url(#SVGID_26_);fill:#F7F7B0;}
	.st14{clip-path:url(#SVGID_28_);}
	.st15{clip-path:url(#SVGID_30_);enable-background:new    ;}
	.st16{clip-path:url(#SVGID_32_);}
	.st17{clip-path:url(#SVGID_34_);}
	.st18{clip-path:url(#SVGID_36_);fill:#F7F7B0;}
	.st19{clip-path:url(#SVGID_38_);}
	.st20{clip-path:url(#SVGID_40_);enable-background:new    ;}
	.st21{clip-path:url(#SVGID_42_);}
	.st22{clip-path:url(#SVGID_44_);}
	.st23{clip-path:url(#SVGID_46_);fill:#28E1FF;}
	.st24{clip-path:url(#SVGID_48_);}
	.st25{clip-path:url(#SVGID_50_);enable-background:new    ;}
	.st26{clip-path:url(#SVGID_52_);}
	.st27{clip-path:url(#SVGID_54_);}
	.st28{clip-path:url(#SVGID_56_);fill:#18A3D2;}
	.st29{clip-path:url(#SVGID_58_);}
	.st30{clip-path:url(#SVGID_60_);enable-background:new    ;}
	.st31{clip-path:url(#SVGID_62_);}
	.st32{clip-path:url(#SVGID_64_);}
	.st33{clip-path:url(#SVGID_66_);fill:#18A3D2;}
	.st34{clip-path:url(#SVGID_68_);}
	.st35{clip-path:url(#SVGID_70_);enable-background:new    ;}
	.st36{clip-path:url(#SVGID_72_);}
	.st37{clip-path:url(#SVGID_74_);}
	.st38{clip-path:url(#SVGID_76_);fill:#FE9A9A;}
	.st39{clip-path:url(#SVGID_78_);}
	.st40{clip-path:url(#SVGID_80_);enable-background:new    ;}
	.st41{clip-path:url(#SVGID_82_);}
	.st42{clip-path:url(#SVGID_84_);}
	.st43{clip-path:url(#SVGID_86_);fill:#1B69C1;}
	.st44{clip-path:url(#SVGID_88_);}
	.st45{clip-path:url(#SVGID_90_);enable-background:new    ;}
	.st46{clip-path:url(#SVGID_92_);}
	.st47{clip-path:url(#SVGID_94_);}
	.st48{clip-path:url(#SVGID_96_);fill:#FE9A9A;}
	.st49{clip-path:url(#SVGID_98_);}
	.st50{clip-path:url(#SVGID_100_);enable-background:new    ;}
	.st51{clip-path:url(#SVGID_102_);}
	.st52{clip-path:url(#SVGID_104_);}
	.st53{clip-path:url(#SVGID_106_);fill:#FE9A9A;}
	.st54{clip-path:url(#SVGID_108_);}
	.st55{clip-path:url(#SVGID_110_);enable-background:new    ;}
	.st56{clip-path:url(#SVGID_112_);}
	.st57{clip-path:url(#SVGID_114_);}
	.st58{clip-path:url(#SVGID_116_);fill:#F7F7B0;}
	.st59{clip-path:url(#SVGID_118_);}
	.st60{clip-path:url(#SVGID_120_);enable-background:new    ;}
	.st61{clip-path:url(#SVGID_122_);}
	.st62{clip-path:url(#SVGID_124_);}
	.st63{clip-path:url(#SVGID_126_);fill:#F7F7B0;}
	.st64{clip-path:url(#SVGID_128_);}
	.st65{clip-path:url(#SVGID_130_);enable-background:new    ;}
	.st66{clip-path:url(#SVGID_132_);}
	.st67{clip-path:url(#SVGID_134_);}
	.st68{clip-path:url(#SVGID_136_);fill:#FE9A9A;}
	.st69{clip-path:url(#SVGID_138_);}
	.st70{opacity:0.1316;clip-path:url(#SVGID_140_);fill:#FFFFFF;}
</style>
<desc>Created with Sketch.</desc>
<g>
	<g>
		<defs>
			<rect id="SVGID_1_" x="-7.9" y="0.5" width="1286.4" height="57.8"/>
		</defs>
		<clipPath id="SVGID_2_">
			<use xlink:href="#SVGID_1_"  style="overflow:visible;"/>
		</clipPath>
		<g class="st0">
			<defs>
				<rect id="SVGID_3_" x="-2.6" y="0.5" width="1281.1" height="911"/>
			</defs>
			<clipPath id="SVGID_4_">
				<use xlink:href="#SVGID_3_"  style="overflow:visible;"/>
			</clipPath>
			<rect x="-12.4" y="-4" class="st1" width="1295.3" height="66.7"/>
		</g>
	</g>
	<g class="st2">
		<g>
			<defs>
				<rect id="SVGID_5_" x="-2.6" y="0.5" width="1304.2" height="58.7"/>
			</defs>
			<clipPath id="SVGID_6_">
				<use xlink:href="#SVGID_5_"  style="overflow:visible;"/>
			</clipPath>
			<g class="st3">
				<defs>
					<path id="SVGID_7_" d="M660.4,0.7c-2.1,14.4-14.5,25.4-29.5,25.4l-0.5,0c-14.8-0.2-26.9-11.2-29-25.4H660.4z"/>
				</defs>
				<clipPath id="SVGID_8_">
					<use xlink:href="#SVGID_7_"  style="overflow:visible;"/>
				</clipPath>
				<g class="st4">
					<defs>
						<rect id="SVGID_9_" x="-2.6" y="0.5" width="1281.1" height="58.7"/>
					</defs>
					<clipPath id="SVGID_10_">
						<use xlink:href="#SVGID_9_"  style="overflow:visible;"/>
					</clipPath>
					<g class="st5">
						<g>
							<defs>
								<rect id="SVGID_11_" x="596.1" y="-38.7" width="69.4" height="69.4"/>
							</defs>
							<clipPath id="SVGID_12_">
								<use xlink:href="#SVGID_11_"  style="overflow:visible;"/>
							</clipPath>
							<g class="st6">
								<defs>
									<rect id="SVGID_13_" x="596.7" y="-37.9" width="68.5" height="68.5"/>
								</defs>
								<clipPath id="SVGID_14_">
									<use xlink:href="#SVGID_13_"  style="overflow:visible;"/>
								</clipPath>
								<g class="st7">
									<defs>
										<rect id="SVGID_15_" x="600.6" y="0.5" width="60.5" height="25.8"/>
									</defs>
									<clipPath id="SVGID_16_">
										<use xlink:href="#SVGID_15_"  style="overflow:visible;"/>
									</clipPath>
									<rect x="592.2" y="-42.4" class="st8" width="77.4" height="77.4"/>
								</g>
							</g>
						</g>
					</g>
				</g>
			</g>
			<g class="st3">
				<defs>
					<path id="SVGID_17_" d="M1280,0.7c0.6,1.8,1,3.8,1,5.8l0,0.3c-0.2,9.7-8.1,17.5-17.8,17.5l-0.3,0c-9.7-0.2-17.5-8.1-17.5-17.8
						c0-2,0.3-4,1-5.8H1280z"/>
				</defs>
				<clipPath id="SVGID_18_">
					<use xlink:href="#SVGID_17_"  style="overflow:visible;"/>
				</clipPath>
				<g class="st9">
					<defs>
						<rect id="SVGID_19_" x="-2.6" y="0.5" width="1281.1" height="58.7"/>
					</defs>
					<clipPath id="SVGID_20_">
						<use xlink:href="#SVGID_19_"  style="overflow:visible;"/>
					</clipPath>
					<g class="st10">
						<g>
							<defs>
								<rect id="SVGID_21_" x="1240.2" y="-16.4" width="45.4" height="45.4"/>
							</defs>
							<clipPath id="SVGID_22_">
								<use xlink:href="#SVGID_21_"  style="overflow:visible;"/>
							</clipPath>
							<g class="st11">
								<defs>
									<rect id="SVGID_23_" x="1240.9" y="-15.7" width="44.5" height="44.5"/>
								</defs>
								<clipPath id="SVGID_24_">
									<use xlink:href="#SVGID_23_"  style="overflow:visible;"/>
								</clipPath>
								<g class="st12">
									<defs>
										<rect id="SVGID_25_" x="1244.7" y="0.5" width="33.8" height="24"/>
									</defs>
									<clipPath id="SVGID_26_">
										<use xlink:href="#SVGID_25_"  style="overflow:visible;"/>
									</clipPath>
									<rect x="1236.4" y="-20.2" class="st13" width="53.4" height="53.4"/>
								</g>
							</g>
						</g>
					</g>
				</g>
			</g>
			<g class="st3">
				<defs>
					<path id="SVGID_27_" d="M1051.6,24.5l0.3,0c9.7,0.2,17.5,8.1,17.5,17.8l0,0.3c-0.1,7.1-4.5,13.3-10.6,16h-14.3
						c-6.3-2.8-10.6-9-10.6-16.3C1033.8,32.4,1041.8,24.5,1051.6,24.5z"/>
				</defs>
				<clipPath id="SVGID_28_">
					<use xlink:href="#SVGID_27_"  style="overflow:visible;"/>
				</clipPath>
				<g class="st14">
					<defs>
						<rect id="SVGID_29_" x="-2.6" y="0.5" width="1281.1" height="58.7"/>
					</defs>
					<clipPath id="SVGID_30_">
						<use xlink:href="#SVGID_29_"  style="overflow:visible;"/>
					</clipPath>
					<g class="st15">
						<g>
							<defs>
								<rect id="SVGID_31_" x="1028.5" y="19.2" width="45.4" height="45.4"/>
							</defs>
							<clipPath id="SVGID_32_">
								<use xlink:href="#SVGID_31_"  style="overflow:visible;"/>
							</clipPath>
							<g class="st16">
								<defs>
									<rect id="SVGID_33_" x="1029.3" y="20" width="44.5" height="44.5"/>
								</defs>
								<clipPath id="SVGID_34_">
									<use xlink:href="#SVGID_33_"  style="overflow:visible;"/>
								</clipPath>
								<g class="st17">
									<defs>
										<rect id="SVGID_35_" x="1032.9" y="23.6" width="36.5" height="35.6"/>
									</defs>
									<clipPath id="SVGID_36_">
										<use xlink:href="#SVGID_35_"  style="overflow:visible;"/>
									</clipPath>
									<rect x="1024.9" y="15.6" class="st18" width="53.4" height="53.4"/>
								</g>
							</g>
						</g>
					</g>
				</g>
			</g>
			<g class="st3">
				<defs>
					<path id="SVGID_37_" d="M154.3,0.7c0.2,1.1,0.3,2.2,0.3,3.4l0,0.3c-0.2,9.7-8.1,17.5-17.8,17.5l-0.3,0
						c-9.7-0.2-17.5-8.1-17.5-17.8c0-1.2,0.1-2.3,0.3-3.4H154.3z"/>
				</defs>
				<clipPath id="SVGID_38_">
					<use xlink:href="#SVGID_37_"  style="overflow:visible;"/>
				</clipPath>
				<g class="st19">
					<defs>
						<rect id="SVGID_39_" x="-2.6" y="0.5" width="1281.1" height="58.7"/>
					</defs>
					<clipPath id="SVGID_40_">
						<use xlink:href="#SVGID_39_"  style="overflow:visible;"/>
					</clipPath>
					<g class="st20">
						<g>
							<defs>
								<rect id="SVGID_41_" x="113.9" y="-18.2" width="45.4" height="45.4"/>
							</defs>
							<clipPath id="SVGID_42_">
								<use xlink:href="#SVGID_41_"  style="overflow:visible;"/>
							</clipPath>
							<g class="st21">
								<defs>
									<rect id="SVGID_43_" x="114.6" y="-18.1" width="44.5" height="44.5"/>
								</defs>
								<clipPath id="SVGID_44_">
									<use xlink:href="#SVGID_43_"  style="overflow:visible;"/>
								</clipPath>
								<g class="st22">
									<defs>
										<rect id="SVGID_45_" x="118.4" y="0.5" width="36.5" height="22.2"/>
									</defs>
									<clipPath id="SVGID_46_">
										<use xlink:href="#SVGID_45_"  style="overflow:visible;"/>
									</clipPath>
									<rect x="110.2" y="-22.6" class="st23" width="53.4" height="53.4"/>
								</g>
							</g>
						</g>
					</g>
				</g>
			</g>
			<g class="st3">
				<defs>
					<path id="SVGID_47_" d="M74.4,0.7c0.3,0.2,0.5,0.5,0.8,0.7l0.3,0.3c10.4,10.8,10.3,27.9-0.3,38.5L57,58.5H-2V39.8L36.3,1.5
						c0.3-0.3,0.5-0.5,0.8-0.7H74.4z"/>
				</defs>
				<clipPath id="SVGID_48_">
					<use xlink:href="#SVGID_47_"  style="overflow:visible;"/>
				</clipPath>
				<g class="st24">
					<defs>
						<rect id="SVGID_49_" x="-2.6" y="0.5" width="1281.1" height="58.7"/>
					</defs>
					<clipPath id="SVGID_50_">
						<use xlink:href="#SVGID_49_"  style="overflow:visible;"/>
					</clipPath>
					<g class="st25">
						<g>
							<defs>
								<rect id="SVGID_51_" x="-98.7" y="-21.8" width="197.5" height="197.5"/>
							</defs>
							<clipPath id="SVGID_52_">
								<use xlink:href="#SVGID_51_"  style="overflow:visible;"/>
							</clipPath>
							<g class="st26">
								<defs>
									
										<rect id="SVGID_53_" x="-109.5" y="47.1" transform="matrix(0.7071 -0.7071 0.7071 0.7071 -54.5154 22.3247)" width="218.4" height="59.8"/>
								</defs>
								<clipPath id="SVGID_54_">
									<use xlink:href="#SVGID_53_"  style="overflow:visible;"/>
								</clipPath>
								<g class="st27">
									<defs>
										<rect id="SVGID_55_" x="-2.6" y="0.5" width="89" height="58.7"/>
									</defs>
									<clipPath id="SVGID_56_">
										<use xlink:href="#SVGID_55_"  style="overflow:visible;"/>
									</clipPath>
									<rect x="-103.1" y="-25.9" class="st28" width="205.6" height="205.6"/>
								</g>
							</g>
						</g>
					</g>
				</g>
			</g>
			<g class="st3">
				<defs>
					<path id="SVGID_57_" d="M1291.3,3.9l0.4,0c3.3,0.1,6.6,0.7,9.6,2v49.9l-2.7,2.7H1226l47.1-47.1c4.9-4.9,11.3-7.4,17.7-7.5
						L1291.3,3.9z"/>
				</defs>
				<clipPath id="SVGID_58_">
					<use xlink:href="#SVGID_57_"  style="overflow:visible;"/>
				</clipPath>
				<g class="st29">
					<defs>
						<rect id="SVGID_59_" x="-2.6" y="0.5" width="1281.1" height="58.7"/>
					</defs>
					<clipPath id="SVGID_60_">
						<use xlink:href="#SVGID_59_"  style="overflow:visible;"/>
					</clipPath>
					<g class="st30">
						<g>
							<defs>
								<rect id="SVGID_61_" x="1146.8" y="-10.2" width="184.2" height="184.2"/>
							</defs>
							<clipPath id="SVGID_62_">
								<use xlink:href="#SVGID_61_"  style="overflow:visible;"/>
							</clipPath>
							<g class="st31">
								<defs>
									
										<rect id="SVGID_63_" x="1136.9" y="54" transform="matrix(0.7071 -0.7071 0.7071 0.7071 304.9205 900.0406)" width="204" height="55.9"/>
								</defs>
								<clipPath id="SVGID_64_">
									<use xlink:href="#SVGID_63_"  style="overflow:visible;"/>
								</clipPath>
								<g class="st32">
									<defs>
										<rect id="SVGID_65_" x="1225.1" y="3.1" width="53.4" height="56"/>
									</defs>
									<clipPath id="SVGID_66_">
										<use xlink:href="#SVGID_65_"  style="overflow:visible;"/>
									</clipPath>
									<rect x="1142.6" y="-14.4" class="st33" width="192.7" height="192.7"/>
								</g>
							</g>
						</g>
					</g>
				</g>
			</g>
			<g class="st3">
				<defs>
					<path id="SVGID_67_" d="M781.2,6.8l0.4,0c7,0.1,14,2.8,19.4,8.2l0.3,0.3c10.6,11,10.5,28.5-0.3,39.3l-0.1,0.1l-0.1,0.1l0.1,0.1
						l-3.6,3.6H718l41.6-41.6l0.4-0.5c0.4-0.5,0.9-1,1.3-1.4l0.3-0.3C767.1,9.5,774.1,6.8,781.2,6.8L781.2,6.8z"/>
				</defs>
				<clipPath id="SVGID_68_">
					<use xlink:href="#SVGID_67_"  style="overflow:visible;"/>
				</clipPath>
				<g class="st34">
					<defs>
						<rect id="SVGID_69_" x="-2.6" y="0.5" width="1281.1" height="58.7"/>
					</defs>
					<clipPath id="SVGID_70_">
						<use xlink:href="#SVGID_69_"  style="overflow:visible;"/>
					</clipPath>
					<g class="st35">
						<g>
							<defs>
								<rect id="SVGID_71_" x="514.3" y="-7.5" width="309.6" height="308.7"/>
							</defs>
							<clipPath id="SVGID_72_">
								<use xlink:href="#SVGID_71_"  style="overflow:visible;"/>
							</clipPath>
							<g class="st36">
								<defs>
									
										<rect id="SVGID_73_" x="481.1" y="117" transform="matrix(0.7071 -0.7071 0.7071 0.7071 92.1538 516.2343)" width="376.3" height="59.7"/>
								</defs>
								<clipPath id="SVGID_74_">
									<use xlink:href="#SVGID_73_"  style="overflow:visible;"/>
								</clipPath>
								<g class="st37">
									<defs>
										<rect id="SVGID_75_" x="718" y="6.7" width="94.3" height="52.5"/>
									</defs>
									<clipPath id="SVGID_76_">
										<use xlink:href="#SVGID_75_"  style="overflow:visible;"/>
									</clipPath>
									<rect x="510.6" y="-11.7" class="st38" width="317.2" height="317.2"/>
								</g>
							</g>
						</g>
					</g>
				</g>
			</g>
			<g class="st3">
				<defs>
					<polygon id="SVGID_77_" points="757.6,0.7 699.8,58.5 621.5,58.5 679.3,0.7 					"/>
				</defs>
				<clipPath id="SVGID_78_">
					<use xlink:href="#SVGID_77_"  style="overflow:visible;"/>
				</clipPath>
				<g class="st39">
					<defs>
						<rect id="SVGID_79_" x="-2.6" y="0.5" width="1281.1" height="58.7"/>
					</defs>
					<clipPath id="SVGID_80_">
						<use xlink:href="#SVGID_79_"  style="overflow:visible;"/>
					</clipPath>
					<g class="st40">
						<g>
							<defs>
								<rect id="SVGID_81_" x="593.5" y="-130.3" width="256.2" height="256.2"/>
							</defs>
							<clipPath id="SVGID_82_">
								<use xlink:href="#SVGID_81_"  style="overflow:visible;"/>
							</clipPath>
							<g class="st41">
								<defs>
									
										<rect id="SVGID_83_" x="570" y="-31.7" transform="matrix(0.7071 -0.7071 0.7071 0.7071 212.8333 509.3895)" width="302.6" height="59"/>
								</defs>
								<clipPath id="SVGID_84_">
									<use xlink:href="#SVGID_83_"  style="overflow:visible;"/>
								</clipPath>
								<g class="st42">
									<defs>
										<rect id="SVGID_85_" x="621" y="0.5" width="137" height="58.7"/>
									</defs>
									<clipPath id="SVGID_86_">
										<use xlink:href="#SVGID_85_"  style="overflow:visible;"/>
									</clipPath>
									<rect x="589" y="-134.5" class="st43" width="264.5" height="264.5"/>
								</g>
							</g>
						</g>
					</g>
				</g>
			</g>
			<g class="st3">
				<defs>
					<rect id="SVGID_87_" x="675.7" y="0.7" width="172.4" height="16.1"/>
				</defs>
				<clipPath id="SVGID_88_">
					<use xlink:href="#SVGID_87_"  style="overflow:visible;"/>
				</clipPath>
				<g class="st44">
					<defs>
						<rect id="SVGID_89_" x="-2.6" y="0.5" width="1281.1" height="58.7"/>
					</defs>
					<clipPath id="SVGID_90_">
						<use xlink:href="#SVGID_89_"  style="overflow:visible;"/>
					</clipPath>
					<g class="st45">
						<g>
							<defs>
								<rect id="SVGID_91_" x="672.6" y="-160.6" width="178.8" height="180.6"/>
							</defs>
							<clipPath id="SVGID_92_">
								<use xlink:href="#SVGID_91_"  style="overflow:visible;"/>
							</clipPath>
							<g class="st46">
								<defs>
									<path id="SVGID_93_" d="M723,7.7c-11.3,11.5-29.2,12.3-39.8,1.9c-10.6-10.4-10-28.4,1.3-39.8L800.8-148
										c11.3-11.5,29.2-12.3,39.8-1.9c10.6,10.4,10,28.3-1.3,39.8L723,7.7z"/>
								</defs>
								<clipPath id="SVGID_94_">
									<use xlink:href="#SVGID_93_"  style="overflow:visible;"/>
								</clipPath>
								<g class="st47">
									<defs>
										<rect id="SVGID_95_" x="675.3" y="0.5" width="173.5" height="16.9"/>
									</defs>
									<clipPath id="SVGID_96_">
										<use xlink:href="#SVGID_95_"  style="overflow:visible;"/>
									</clipPath>
									<rect x="671.3" y="-161.7" class="st48" width="181.3" height="183"/>
								</g>
							</g>
						</g>
					</g>
				</g>
			</g>
			<g class="st3">
				<defs>
					<rect id="SVGID_97_" x="348" y="0.7" width="172.4" height="57.8"/>
				</defs>
				<clipPath id="SVGID_98_">
					<use xlink:href="#SVGID_97_"  style="overflow:visible;"/>
				</clipPath>
				<g class="st49">
					<defs>
						<rect id="SVGID_99_" x="-2.6" y="0.5" width="1281.1" height="58.7"/>
					</defs>
					<clipPath id="SVGID_100_">
						<use xlink:href="#SVGID_99_"  style="overflow:visible;"/>
					</clipPath>
					<g class="st50">
						<g>
							<defs>
								<rect id="SVGID_101_" x="344.4" y="-33.3" width="179.7" height="180.6"/>
							</defs>
							<clipPath id="SVGID_102_">
								<use xlink:href="#SVGID_101_"  style="overflow:visible;"/>
							</clipPath>
							<g class="st51">
								<defs>
									<path id="SVGID_103_" d="M395.3,134.8c-11.3,11.5-29.2,12.3-39.8,1.9c-10.6-10.4-10-28.3,1.3-39.8L473.1-20.9
										c11.3-11.5,29.2-12.3,39.8-1.9c10.6,10.4,10,28.3-1.3,39.8L395.3,134.8z"/>
								</defs>
								<clipPath id="SVGID_104_">
									<use xlink:href="#SVGID_103_"  style="overflow:visible;"/>
								</clipPath>
								<g class="st52">
									<defs>
										<rect id="SVGID_105_" x="347.9" y="0.5" width="172.6" height="58.7"/>
									</defs>
									<clipPath id="SVGID_106_">
										<use xlink:href="#SVGID_105_"  style="overflow:visible;"/>
									</clipPath>
									<rect x="343.5" y="-34.6" class="st53" width="181.3" height="183"/>
								</g>
							</g>
						</g>
					</g>
				</g>
			</g>
			<g class="st3">
				<defs>
					<polygon id="SVGID_107_" points="250,0.7 192.1,58.5 127.7,58.5 185.5,0.7 					"/>
				</defs>
				<clipPath id="SVGID_108_">
					<use xlink:href="#SVGID_107_"  style="overflow:visible;"/>
				</clipPath>
				<g class="st54">
					<defs>
						<rect id="SVGID_109_" x="-2.6" y="0.5" width="1281.1" height="58.7"/>
					</defs>
					<clipPath id="SVGID_110_">
						<use xlink:href="#SVGID_109_"  style="overflow:visible;"/>
					</clipPath>
					<g class="st55">
						<g>
							<defs>
								<rect id="SVGID_111_" x="-48" y="-151.7" width="418.1" height="418.1"/>
							</defs>
							<clipPath id="SVGID_112_">
								<use xlink:href="#SVGID_111_"  style="overflow:visible;"/>
							</clipPath>
							<g class="st56">
								<defs>
									
										<rect id="SVGID_113_" x="-108.9" y="32.3" transform="matrix(0.7071 -0.7071 0.7071 0.7071 6.9234 130.8342)" width="540.7" height="49.6"/>
								</defs>
								<clipPath id="SVGID_114_">
									<use xlink:href="#SVGID_113_"  style="overflow:visible;"/>
								</clipPath>
								<g class="st57">
									<defs>
										<rect id="SVGID_115_" x="127.3" y="0.5" width="122.8" height="58.7"/>
									</defs>
									<clipPath id="SVGID_116_">
										<use xlink:href="#SVGID_115_"  style="overflow:visible;"/>
									</clipPath>
									<rect x="-51.7" y="-156.1" class="st58" width="426.3" height="426.3"/>
								</g>
							</g>
						</g>
					</g>
				</g>
			</g>
			<g class="st3">
				<defs>
					<path id="SVGID_117_" d="M472.4,0.7l-37.5,37.5l-0.3,0.3c-8.9,8.6-23.1,8.5-31.9-0.3l-0.3-0.3c-8.6-8.9-8.5-23.1,0.3-32
						l5.3-5.3H472.4z"/>
				</defs>
				<clipPath id="SVGID_118_">
					<use xlink:href="#SVGID_117_"  style="overflow:visible;"/>
				</clipPath>
				<g class="st59">
					<defs>
						<rect id="SVGID_119_" x="-2.6" y="0.5" width="1281.1" height="58.7"/>
					</defs>
					<clipPath id="SVGID_120_">
						<use xlink:href="#SVGID_119_"  style="overflow:visible;"/>
					</clipPath>
					<g class="st60">
						<g>
							<defs>
								<rect id="SVGID_121_" x="383.5" y="-360.7" width="418.1" height="418.1"/>
							</defs>
							<clipPath id="SVGID_122_">
								<use xlink:href="#SVGID_121_"  style="overflow:visible;"/>
							</clipPath>
							<g class="st61">
								<defs>
									
										<rect id="SVGID_123_" x="322.1" y="-176.3" transform="matrix(0.7071 -0.7071 0.7071 0.7071 280.6284 374.5165)" width="540.7" height="49.6"/>
								</defs>
								<clipPath id="SVGID_124_">
									<use xlink:href="#SVGID_123_"  style="overflow:visible;"/>
								</clipPath>
								<g class="st62">
									<defs>
										<rect id="SVGID_125_" x="393.3" y="0.5" width="79.2" height="47.2"/>
									</defs>
									<clipPath id="SVGID_126_">
										<use xlink:href="#SVGID_125_"  style="overflow:visible;"/>
									</clipPath>
									<rect x="379.3" y="-364.6" class="st63" width="426.3" height="426.3"/>
								</g>
							</g>
						</g>
					</g>
				</g>
			</g>
			<g class="st3">
				<defs>
					<rect id="SVGID_127_" x="972.1" y="0.7" width="33.8" height="19.2"/>
				</defs>
				<clipPath id="SVGID_128_">
					<use xlink:href="#SVGID_127_"  style="overflow:visible;"/>
				</clipPath>
				<g class="st64">
					<defs>
						<rect id="SVGID_129_" x="-2.6" y="0.5" width="1281.1" height="58.7"/>
					</defs>
					<clipPath id="SVGID_130_">
						<use xlink:href="#SVGID_129_"  style="overflow:visible;"/>
					</clipPath>
					<g class="st65">
						<g>
							<defs>
								<rect id="SVGID_131_" x="971.6" y="-14.7" width="34.7" height="34.7"/>
							</defs>
							<clipPath id="SVGID_132_">
								<use xlink:href="#SVGID_131_"  style="overflow:visible;"/>
							</clipPath>
							<g class="st66">
								<defs>
									<path id="SVGID_133_" d="M1005.8,3c0,9.3-7.6,16.9-16.9,16.9c-9.3,0-16.9-7.6-16.9-16.9s7.6-16.9,16.9-16.9
										C998.3-13.8,1005.8-6.3,1005.8,3"/>
								</defs>
								<clipPath id="SVGID_134_">
									<use xlink:href="#SVGID_133_"  style="overflow:visible;"/>
								</clipPath>
								<g class="st67">
									<defs>
										<rect id="SVGID_135_" x="971.6" y="0.5" width="34.7" height="19.6"/>
									</defs>
									<clipPath id="SVGID_136_">
										<use xlink:href="#SVGID_135_"  style="overflow:visible;"/>
									</clipPath>
									<rect x="967.6" y="-18.3" class="st68" width="42.7" height="42.7"/>
								</g>
							</g>
						</g>
					</g>
				</g>
			</g>
		</g>
	</g>
	<g>
		<defs>
			<rect id="SVGID_137_" x="-2.6" y="-0.4" width="1281.1" height="59.6"/>
		</defs>
		<clipPath id="SVGID_138_">
			<use xlink:href="#SVGID_137_"  style="overflow:visible;"/>
		</clipPath>
		<g class="st69">
			<defs>
				<rect id="SVGID_139_" x="-2.6" y="0.5" width="1281.1" height="911"/>
			</defs>
			<clipPath id="SVGID_140_">
				<use xlink:href="#SVGID_139_"  style="overflow:visible;"/>
			</clipPath>
			<rect x="-7.1" y="-4.9" class="st70" width="1290" height="68.5"/>
		</g>
	</g>
</g>
</svg>
